<?xml version="1.0" encoding="utf-8" standalone="no"?>
<!DOCTYPE svg PUBLIC "-//W3C//DTD SVG 1.1//EN"
  "http://www.w3.org/Graphics/SVG/1.1/DTD/svg11.dtd">
<!-- Created with matplotlib (https://matplotlib.org/) -->
<svg height="345.6pt" version="1.1" viewBox="0 0 460.8 345.6" width="460.8pt" xmlns="http://www.w3.org/2000/svg" xmlns:xlink="http://www.w3.org/1999/xlink">
 <defs>
  <style type="text/css">
*{stroke-linecap:butt;stroke-linejoin:round;}
  </style>
 </defs>
 <g id="figure_1">
  <g id="patch_1">
   <path d="M 0 345.6 
L 460.8 345.6 
L 460.8 0 
L 0 0 
z
" style="fill:#ffffff;"/>
  </g>
  <g id="axes_1">
   <g id="patch_2">
    <path d="M 57.6 259.2 
L 414.72 259.2 
L 414.72 41.472 
L 57.6 41.472 
z
" style="fill:#ffffff;"/>
   </g>
   <g id="patch_3">
    <path clip-path="url(#pce99e7bc2a)" d="M 61.481739 259.2 
L 69.245217 259.2 
L 69.245217 259.2 
L 61.481739 259.2 
z
" style="fill:#a6cee3;"/>
   </g>
   <g id="patch_4">
    <path clip-path="url(#pce99e7bc2a)" d="M 77.008696 259.2 
L 84.772174 259.2 
L 84.772174 259.2 
L 77.008696 259.2 
z
" style="fill:#a6cee3;"/>
   </g>
   <g id="patch_5">
    <path clip-path="url(#pce99e7bc2a)" d="M 92.535652 259.2 
L 100.29913 259.2 
L 100.29913 259.2 
L 92.535652 259.2 
z
" style="fill:#a6cee3;"/>
   </g>
   <g id="patch_6">
    <path clip-path="url(#pce99e7bc2a)" d="M 108.062609 259.2 
L 115.826087 259.2 
L 115.826087 234.434313 
L 108.062609 234.434313 
z
" style="fill:#a6cee3;"/>
   </g>
   <g id="patch_7">
    <path clip-path="url(#pce99e7bc2a)" d="M 123.589565 259.2 
L 131.353043 259.2 
L 131.353043 259.2 
L 123.589565 259.2 
z
" style="fill:#a6cee3;"/>
   </g>
   <g id="patch_8">
    <path clip-path="url(#pce99e7bc2a)" d="M 139.116522 259.2 
L 146.88 259.2 
L 146.88 259.2 
L 139.116522 259.2 
z
" style="fill:#a6cee3;"/>
   </g>
   <g id="patch_9">
    <path clip-path="url(#pce99e7bc2a)" d="M 154.643478 259.2 
L 162.406957 259.2 
L 162.406957 259.2 
L 154.643478 259.2 
z
" style="fill:#a6cee3;"/>
   </g>
   <g id="patch_10">
    <path clip-path="url(#pce99e7bc2a)" d="M 170.170435 259.2 
L 177.933913 259.2 
L 177.933913 255.311129 
L 170.170435 255.311129 
z
" style="fill:#a6cee3;"/>
   </g>
   <g id="patch_11">
    <path clip-path="url(#pce99e7bc2a)" d="M 185.697391 259.2 
L 193.46087 259.2 
L 193.46087 255.589801 
L 185.697391 255.589801 
z
" style="fill:#a6cee3;"/>
   </g>
   <g id="patch_12">
    <path clip-path="url(#pce99e7bc2a)" d="M 201.224348 259.2 
L 208.987826 259.2 
L 208.987826 258.097464 
L 201.224348 258.097464 
z
" style="fill:#a6cee3;"/>
   </g>
   <g id="patch_13">
    <path clip-path="url(#pce99e7bc2a)" d="M 216.751304 259.2 
L 224.514783 259.2 
L 224.514783 255.111237 
L 216.751304 255.111237 
z
" style="fill:#a6cee3;"/>
   </g>
   <g id="patch_14">
    <path clip-path="url(#pce99e7bc2a)" d="M 232.278261 259.2 
L 240.041739 259.2 
L 240.041739 255.273353 
L 232.278261 255.273353 
z
" style="fill:#a6cee3;"/>
   </g>
   <g id="patch_15">
    <path clip-path="url(#pce99e7bc2a)" d="M 247.805217 259.2 
L 255.568696 259.2 
L 255.568696 259.2 
L 247.805217 259.2 
z
" style="fill:#a6cee3;"/>
   </g>
   <g id="patch_16">
    <path clip-path="url(#pce99e7bc2a)" d="M 263.332174 259.2 
L 271.095652 259.2 
L 271.095652 253.51647 
L 263.332174 253.51647 
z
" style="fill:#a6cee3;"/>
   </g>
   <g id="patch_17">
    <path clip-path="url(#pce99e7bc2a)" d="M 278.85913 259.2 
L 286.622609 259.2 
L 286.622609 256.919754 
L 278.85913 256.919754 
z
" style="fill:#a6cee3;"/>
   </g>
   <g id="patch_18">
    <path clip-path="url(#pce99e7bc2a)" d="M 294.386087 259.2 
L 302.149565 259.2 
L 302.149565 248.587707 
L 294.386087 248.587707 
z
" style="fill:#a6cee3;"/>
   </g>
   <g id="patch_19">
    <path clip-path="url(#pce99e7bc2a)" d="M 309.913043 259.2 
L 317.676522 259.2 
L 317.676522 259.2 
L 309.913043 259.2 
z
" style="fill:#a6cee3;"/>
   </g>
   <g id="patch_20">
    <path clip-path="url(#pce99e7bc2a)" d="M 325.44 259.2 
L 333.203478 259.2 
L 333.203478 235.943277 
L 325.44 235.943277 
z
" style="fill:#a6cee3;"/>
   </g>
   <g id="patch_21">
    <path clip-path="url(#pce99e7bc2a)" d="M 340.966957 259.2 
L 348.730435 259.2 
L 348.730435 257.255944 
L 340.966957 257.255944 
z
" style="fill:#a6cee3;"/>
   </g>
   <g id="patch_22">
    <path clip-path="url(#pce99e7bc2a)" d="M 356.493913 259.2 
L 364.257391 259.2 
L 364.257391 259.2 
L 356.493913 259.2 
z
" style="fill:#a6cee3;"/>
   </g>
   <g id="patch_23">
    <path clip-path="url(#pce99e7bc2a)" d="M 372.02087 259.2 
L 379.784348 259.2 
L 379.784348 254.385135 
L 372.02087 254.385135 
z
" style="fill:#a6cee3;"/>
   </g>
   <g id="patch_24">
    <path clip-path="url(#pce99e7bc2a)" d="M 387.547826 259.2 
L 395.311304 259.2 
L 395.311304 259.2 
L 387.547826 259.2 
z
" style="fill:#a6cee3;"/>
   </g>
   <g id="patch_25">
    <path clip-path="url(#pce99e7bc2a)" d="M 403.074783 259.2 
L 410.838261 259.2 
L 410.838261 255.006641 
L 403.074783 255.006641 
z
" style="fill:#a6cee3;"/>
   </g>
   <g id="patch_26">
    <path clip-path="url(#pce99e7bc2a)" d="M 61.481739 259.2 
L 69.245217 259.2 
L 69.245217 259.2 
L 61.481739 259.2 
z
" style="fill:#33a02c;"/>
   </g>
   <g id="patch_27">
    <path clip-path="url(#pce99e7bc2a)" d="M 77.008696 259.2 
L 84.772174 259.2 
L 84.772174 259.2 
L 77.008696 259.2 
z
" style="fill:#33a02c;"/>
   </g>
   <g id="patch_28">
    <path clip-path="url(#pce99e7bc2a)" d="M 92.535652 259.2 
L 100.29913 259.2 
L 100.29913 259.2 
L 92.535652 259.2 
z
" style="fill:#33a02c;"/>
   </g>
   <g id="patch_29">
    <path clip-path="url(#pce99e7bc2a)" d="M 108.062609 234.434313 
L 115.826087 234.434313 
L 115.826087 194.206159 
L 108.062609 194.206159 
z
" style="fill:#33a02c;"/>
   </g>
   <g id="patch_30">
    <path clip-path="url(#pce99e7bc2a)" d="M 123.589565 259.2 
L 131.353043 259.2 
L 131.353043 259.2 
L 123.589565 259.2 
z
" style="fill:#33a02c;"/>
   </g>
   <g id="patch_31">
    <path clip-path="url(#pce99e7bc2a)" d="M 139.116522 259.2 
L 146.88 259.2 
L 146.88 259.2 
L 139.116522 259.2 
z
" style="fill:#33a02c;"/>
   </g>
   <g id="patch_32">
    <path clip-path="url(#pce99e7bc2a)" d="M 154.643478 259.2 
L 162.406957 259.2 
L 162.406957 259.2 
L 154.643478 259.2 
z
" style="fill:#33a02c;"/>
   </g>
   <g id="patch_33">
    <path clip-path="url(#pce99e7bc2a)" d="M 170.170435 255.311129 
L 177.933913 255.311129 
L 177.933913 247.264587 
L 170.170435 247.264587 
z
" style="fill:#33a02c;"/>
   </g>
   <g id="patch_34">
    <path clip-path="url(#pce99e7bc2a)" d="M 185.697391 255.589801 
L 193.46087 255.589801 
L 193.46087 248.802216 
L 185.697391 248.802216 
z
" style="fill:#33a02c;"/>
   </g>
   <g id="patch_35">
    <path clip-path="url(#pce99e7bc2a)" d="M 201.224348 258.097464 
L 208.987826 258.097464 
L 208.987826 252.488917 
L 201.224348 252.488917 
z
" style="fill:#33a02c;"/>
   </g>
   <g id="patch_36">
    <path clip-path="url(#pce99e7bc2a)" d="M 216.751304 255.111237 
L 224.514783 255.111237 
L 224.514783 244.513751 
L 216.751304 244.513751 
z
" style="fill:#33a02c;"/>
   </g>
   <g id="patch_37">
    <path clip-path="url(#pce99e7bc2a)" d="M 232.278261 255.273353 
L 240.041739 255.273353 
L 240.041739 248.077062 
L 232.278261 248.077062 
z
" style="fill:#33a02c;"/>
   </g>
   <g id="patch_38">
    <path clip-path="url(#pce99e7bc2a)" d="M 247.805217 259.2 
L 255.568696 259.2 
L 255.568696 259.2 
L 247.805217 259.2 
z
" style="fill:#33a02c;"/>
   </g>
   <g id="patch_39">
    <path clip-path="url(#pce99e7bc2a)" d="M 263.332174 253.51647 
L 271.095652 253.51647 
L 271.095652 242.479336 
L 263.332174 242.479336 
z
" style="fill:#33a02c;"/>
   </g>
   <g id="patch_40">
    <path clip-path="url(#pce99e7bc2a)" d="M 278.85913 256.919754 
L 286.622609 256.919754 
L 286.622609 250.553024 
L 278.85913 250.553024 
z
" style="fill:#33a02c;"/>
   </g>
   <g id="patch_41">
    <path clip-path="url(#pce99e7bc2a)" d="M 294.386087 248.587707 
L 302.149565 248.587707 
L 302.149565 205.158629 
L 294.386087 205.158629 
z
" style="fill:#33a02c;"/>
   </g>
   <g id="patch_42">
    <path clip-path="url(#pce99e7bc2a)" d="M 309.913043 259.2 
L 317.676522 259.2 
L 317.676522 259.2 
L 309.913043 259.2 
z
" style="fill:#33a02c;"/>
   </g>
   <g id="patch_43">
    <path clip-path="url(#pce99e7bc2a)" d="M 325.44 235.943277 
L 333.203478 235.943277 
L 333.203478 215.590393 
L 325.44 215.590393 
z
" style="fill:#33a02c;"/>
   </g>
   <g id="patch_44">
    <path clip-path="url(#pce99e7bc2a)" d="M 340.966957 257.255944 
L 348.730435 257.255944 
L 348.730435 247.737645 
L 340.966957 247.737645 
z
" style="fill:#33a02c;"/>
   </g>
   <g id="patch_45">
    <path clip-path="url(#pce99e7bc2a)" d="M 356.493913 259.2 
L 364.257391 259.2 
L 364.257391 259.2 
L 356.493913 259.2 
z
" style="fill:#33a02c;"/>
   </g>
   <g id="patch_46">
    <path clip-path="url(#pce99e7bc2a)" d="M 372.02087 254.385135 
L 379.784348 254.385135 
L 379.784348 246.73458 
L 372.02087 246.73458 
z
" style="fill:#33a02c;"/>
   </g>
   <g id="patch_47">
    <path clip-path="url(#pce99e7bc2a)" d="M 387.547826 259.2 
L 395.311304 259.2 
L 395.311304 259.2 
L 387.547826 259.2 
z
" style="fill:#33a02c;"/>
   </g>
   <g id="patch_48">
    <path clip-path="url(#pce99e7bc2a)" d="M 403.074783 255.006641 
L 410.838261 255.006641 
L 410.838261 237.7106 
L 403.074783 237.7106 
z
" style="fill:#33a02c;"/>
   </g>
   <g id="patch_49">
    <path clip-path="url(#pce99e7bc2a)" d="M 61.481739 259.2 
L 69.245217 259.2 
L 69.245217 259.2 
L 61.481739 259.2 
z
" style="fill:#fdbf6f;"/>
   </g>
   <g id="patch_50">
    <path clip-path="url(#pce99e7bc2a)" d="M 77.008696 259.2 
L 84.772174 259.2 
L 84.772174 259.2 
L 77.008696 259.2 
z
" style="fill:#fdbf6f;"/>
   </g>
   <g id="patch_51">
    <path clip-path="url(#pce99e7bc2a)" d="M 92.535652 259.2 
L 100.29913 259.2 
L 100.29913 259.2 
L 92.535652 259.2 
z
" style="fill:#fdbf6f;"/>
   </g>
   <g id="patch_52">
    <path clip-path="url(#pce99e7bc2a)" d="M 108.062609 194.206159 
L 115.826087 194.206159 
L 115.826087 156.582482 
L 108.062609 156.582482 
z
" style="fill:#fdbf6f;"/>
   </g>
   <g id="patch_53">
    <path clip-path="url(#pce99e7bc2a)" d="M 123.589565 259.2 
L 131.353043 259.2 
L 131.353043 259.2 
L 123.589565 259.2 
z
" style="fill:#fdbf6f;"/>
   </g>
   <g id="patch_54">
    <path clip-path="url(#pce99e7bc2a)" d="M 139.116522 259.2 
L 146.88 259.2 
L 146.88 259.2 
L 139.116522 259.2 
z
" style="fill:#fdbf6f;"/>
   </g>
   <g id="patch_55">
    <path clip-path="url(#pce99e7bc2a)" d="M 154.643478 259.2 
L 162.406957 259.2 
L 162.406957 259.2 
L 154.643478 259.2 
z
" style="fill:#fdbf6f;"/>
   </g>
   <g id="patch_56">
    <path clip-path="url(#pce99e7bc2a)" d="M 170.170435 247.264587 
L 177.933913 247.264587 
L 177.933913 242.701438 
L 170.170435 242.701438 
z
" style="fill:#fdbf6f;"/>
   </g>
   <g id="patch_57">
    <path clip-path="url(#pce99e7bc2a)" d="M 185.697391 248.802216 
L 193.46087 248.802216 
L 193.46087 244.846334 
L 185.697391 244.846334 
z
" style="fill:#fdbf6f;"/>
   </g>
   <g id="patch_58">
    <path clip-path="url(#pce99e7bc2a)" d="M 201.224348 252.488917 
L 208.987826 252.488917 
L 208.987826 249.022799 
L 201.224348 249.022799 
z
" style="fill:#fdbf6f;"/>
   </g>
   <g id="patch_59">
    <path clip-path="url(#pce99e7bc2a)" d="M 216.751304 244.513751 
L 224.514783 244.513751 
L 224.514783 235.628727 
L 216.751304 235.628727 
z
" style="fill:#fdbf6f;"/>
   </g>
   <g id="patch_60">
    <path clip-path="url(#pce99e7bc2a)" d="M 232.278261 248.077062 
L 240.041739 248.077062 
L 240.041739 246.199258 
L 232.278261 246.199258 
z
" style="fill:#fdbf6f;"/>
   </g>
   <g id="patch_61">
    <path clip-path="url(#pce99e7bc2a)" d="M 247.805217 259.2 
L 255.568696 259.2 
L 255.568696 259.2 
L 247.805217 259.2 
z
" style="fill:#fdbf6f;"/>
   </g>
   <g id="patch_62">
    <path clip-path="url(#pce99e7bc2a)" d="M 263.332174 242.479336 
L 271.095652 242.479336 
L 271.095652 233.272929 
L 263.332174 233.272929 
z
" style="fill:#fdbf6f;"/>
   </g>
   <g id="patch_63">
    <path clip-path="url(#pce99e7bc2a)" d="M 278.85913 250.553024 
L 286.622609 250.553024 
L 286.622609 245.538837 
L 278.85913 245.538837 
z
" style="fill:#fdbf6f;"/>
   </g>
   <g id="patch_64">
    <path clip-path="url(#pce99e7bc2a)" d="M 294.386087 205.158629 
L 302.149565 205.158629 
L 302.149565 173.743553 
L 294.386087 173.743553 
z
" style="fill:#fdbf6f;"/>
   </g>
   <g id="patch_65">
    <path clip-path="url(#pce99e7bc2a)" d="M 309.913043 259.2 
L 317.676522 259.2 
L 317.676522 259.2 
L 309.913043 259.2 
z
" style="fill:#fdbf6f;"/>
   </g>
   <g id="patch_66">
    <path clip-path="url(#pce99e7bc2a)" d="M 325.44 215.590393 
L 333.203478 215.590393 
L 333.203478 167.278111 
L 325.44 167.278111 
z
" style="fill:#fdbf6f;"/>
   </g>
   <g id="patch_67">
    <path clip-path="url(#pce99e7bc2a)" d="M 340.966957 247.737645 
L 348.730435 247.737645 
L 348.730435 244.085873 
L 340.966957 244.085873 
z
" style="fill:#fdbf6f;"/>
   </g>
   <g id="patch_68">
    <path clip-path="url(#pce99e7bc2a)" d="M 356.493913 259.2 
L 364.257391 259.2 
L 364.257391 259.2 
L 356.493913 259.2 
z
" style="fill:#fdbf6f;"/>
   </g>
   <g id="patch_69">
    <path clip-path="url(#pce99e7bc2a)" d="M 372.02087 246.73458 
L 379.784348 246.73458 
L 379.784348 232.420399 
L 372.02087 232.420399 
z
" style="fill:#fdbf6f;"/>
   </g>
   <g id="patch_70">
    <path clip-path="url(#pce99e7bc2a)" d="M 387.547826 259.2 
L 395.311304 259.2 
L 395.311304 259.2 
L 387.547826 259.2 
z
" style="fill:#fdbf6f;"/>
   </g>
   <g id="patch_71">
    <path clip-path="url(#pce99e7bc2a)" d="M 403.074783 237.7106 
L 410.838261 237.7106 
L 410.838261 226.032977 
L 403.074783 226.032977 
z
" style="fill:#fdbf6f;"/>
   </g>
   <g id="patch_72">
    <path clip-path="url(#pce99e7bc2a)" d="M 61.481739 259.2 
L 69.245217 259.2 
L 69.245217 259.2 
L 61.481739 259.2 
z
" style="fill:#6a3d9a;"/>
   </g>
   <g id="patch_73">
    <path clip-path="url(#pce99e7bc2a)" d="M 77.008696 259.2 
L 84.772174 259.2 
L 84.772174 259.2 
L 77.008696 259.2 
z
" style="fill:#6a3d9a;"/>
   </g>
   <g id="patch_74">
    <path clip-path="url(#pce99e7bc2a)" d="M 92.535652 259.2 
L 100.29913 259.2 
L 100.29913 259.2 
L 92.535652 259.2 
z
" style="fill:#6a3d9a;"/>
   </g>
   <g id="patch_75">
    <path clip-path="url(#pce99e7bc2a)" d="M 108.062609 156.582482 
L 115.826087 156.582482 
L 115.826087 81.338166 
L 108.062609 81.338166 
z
" style="fill:#6a3d9a;"/>
   </g>
   <g id="patch_76">
    <path clip-path="url(#pce99e7bc2a)" d="M 123.589565 259.2 
L 131.353043 259.2 
L 131.353043 259.2 
L 123.589565 259.2 
z
" style="fill:#6a3d9a;"/>
   </g>
   <g id="patch_77">
    <path clip-path="url(#pce99e7bc2a)" d="M 139.116522 259.2 
L 146.88 259.2 
L 146.88 259.2 
L 139.116522 259.2 
z
" style="fill:#6a3d9a;"/>
   </g>
   <g id="patch_78">
    <path clip-path="url(#pce99e7bc2a)" d="M 154.643478 259.2 
L 162.406957 259.2 
L 162.406957 259.2 
L 154.643478 259.2 
z
" style="fill:#6a3d9a;"/>
   </g>
   <g id="patch_79">
    <path clip-path="url(#pce99e7bc2a)" d="M 170.170435 242.701438 
L 177.933913 242.701438 
L 177.933913 236.674694 
L 170.170435 236.674694 
z
" style="fill:#6a3d9a;"/>
   </g>
   <g id="patch_80">
    <path clip-path="url(#pce99e7bc2a)" d="M 185.697391 244.846334 
L 193.46087 244.846334 
L 193.46087 237.574681 
L 185.697391 237.574681 
z
" style="fill:#6a3d9a;"/>
   </g>
   <g id="patch_81">
    <path clip-path="url(#pce99e7bc2a)" d="M 201.224348 249.022799 
L 208.987826 249.022799 
L 208.987826 240.032988 
L 201.224348 240.032988 
z
" style="fill:#6a3d9a;"/>
   </g>
   <g id="patch_82">
    <path clip-path="url(#pce99e7bc2a)" d="M 216.751304 235.628727 
L 224.514783 235.628727 
L 224.514783 224.878237 
L 216.751304 224.878237 
z
" style="fill:#6a3d9a;"/>
   </g>
   <g id="patch_83">
    <path clip-path="url(#pce99e7bc2a)" d="M 232.278261 246.199258 
L 240.041739 246.199258 
L 240.041739 240.107022 
L 232.278261 240.107022 
z
" style="fill:#6a3d9a;"/>
   </g>
   <g id="patch_84">
    <path clip-path="url(#pce99e7bc2a)" d="M 247.805217 259.2 
L 255.568696 259.2 
L 255.568696 259.2 
L 247.805217 259.2 
z
" style="fill:#6a3d9a;"/>
   </g>
   <g id="patch_85">
    <path clip-path="url(#pce99e7bc2a)" d="M 263.332174 233.272929 
L 271.095652 233.272929 
L 271.095652 215.639559 
L 263.332174 215.639559 
z
" style="fill:#6a3d9a;"/>
   </g>
   <g id="patch_86">
    <path clip-path="url(#pce99e7bc2a)" d="M 278.85913 245.538837 
L 286.622609 245.538837 
L 286.622609 236.486952 
L 278.85913 236.486952 
z
" style="fill:#6a3d9a;"/>
   </g>
   <g id="patch_87">
    <path clip-path="url(#pce99e7bc2a)" d="M 294.386087 173.743553 
L 302.149565 173.743553 
L 302.149565 149.616267 
L 294.386087 149.616267 
z
" style="fill:#6a3d9a;"/>
   </g>
   <g id="patch_88">
    <path clip-path="url(#pce99e7bc2a)" d="M 309.913043 259.2 
L 317.676522 259.2 
L 317.676522 259.2 
L 309.913043 259.2 
z
" style="fill:#6a3d9a;"/>
   </g>
   <g id="patch_89">
    <path clip-path="url(#pce99e7bc2a)" d="M 325.44 167.278111 
L 333.203478 167.278111 
L 333.203478 116.416213 
L 325.44 116.416213 
z
" style="fill:#6a3d9a;"/>
   </g>
   <g id="patch_90">
    <path clip-path="url(#pce99e7bc2a)" d="M 340.966957 244.085873 
L 348.730435 244.085873 
L 348.730435 228.467176 
L 340.966957 228.467176 
z
" style="fill:#6a3d9a;"/>
   </g>
   <g id="patch_91">
    <path clip-path="url(#pce99e7bc2a)" d="M 356.493913 259.2 
L 364.257391 259.2 
L 364.257391 259.2 
L 356.493913 259.2 
z
" style="fill:#6a3d9a;"/>
   </g>
   <g id="patch_92">
    <path clip-path="url(#pce99e7bc2a)" d="M 372.02087 232.420399 
L 379.784348 232.420399 
L 379.784348 218.590287 
L 372.02087 218.590287 
z
" style="fill:#6a3d9a;"/>
   </g>
   <g id="patch_93">
    <path clip-path="url(#pce99e7bc2a)" d="M 387.547826 259.2 
L 395.311304 259.2 
L 395.311304 259.2 
L 387.547826 259.2 
z
" style="fill:#6a3d9a;"/>
   </g>
   <g id="patch_94">
    <path clip-path="url(#pce99e7bc2a)" d="M 403.074783 226.032977 
L 410.838261 226.032977 
L 410.838261 202.252891 
L 403.074783 202.252891 
z
" style="fill:#6a3d9a;"/>
   </g>
   <g id="patch_95">
    <path clip-path="url(#pce99e7bc2a)" d="M 61.481739 259.2 
L 69.245217 259.2 
L 69.245217 259.2 
L 61.481739 259.2 
z
" style="fill:#b15928;"/>
   </g>
   <g id="patch_96">
    <path clip-path="url(#pce99e7bc2a)" d="M 77.008696 259.2 
L 84.772174 259.2 
L 84.772174 259.2 
L 77.008696 259.2 
z
" style="fill:#b15928;"/>
   </g>
   <g id="patch_97">
    <path clip-path="url(#pce99e7bc2a)" d="M 92.535652 259.2 
L 100.29913 259.2 
L 100.29913 259.2 
L 92.535652 259.2 
z
" style="fill:#b15928;"/>
   </g>
   <g id="patch_98">
    <path clip-path="url(#pce99e7bc2a)" d="M 108.062609 81.338166 
L 115.826087 81.338166 
L 115.826087 51.84 
L 108.062609 51.84 
z
" style="fill:#b15928;"/>
   </g>
   <g id="patch_99">
    <path clip-path="url(#pce99e7bc2a)" d="M 123.589565 259.2 
L 131.353043 259.2 
L 131.353043 259.2 
L 123.589565 259.2 
z
" style="fill:#b15928;"/>
   </g>
   <g id="patch_100">
    <path clip-path="url(#pce99e7bc2a)" d="M 139.116522 259.2 
L 146.88 259.2 
L 146.88 259.2 
L 139.116522 259.2 
z
" style="fill:#b15928;"/>
   </g>
   <g id="patch_101">
    <path clip-path="url(#pce99e7bc2a)" d="M 154.643478 259.2 
L 162.406957 259.2 
L 162.406957 259.2 
L 154.643478 259.2 
z
" style="fill:#b15928;"/>
   </g>
   <g id="patch_102">
    <path clip-path="url(#pce99e7bc2a)" d="M 170.170435 236.674694 
L 177.933913 236.674694 
L 177.933913 229.449929 
L 170.170435 229.449929 
z
" style="fill:#b15928;"/>
   </g>
   <g id="patch_103">
    <path clip-path="url(#pce99e7bc2a)" d="M 185.697391 237.574681 
L 193.46087 237.574681 
L 193.46087 230.158377 
L 185.697391 230.158377 
z
" style="fill:#b15928;"/>
   </g>
   <g id="patch_104">
    <path clip-path="url(#pce99e7bc2a)" d="M 201.224348 240.032988 
L 208.987826 240.032988 
L 208.987826 229.251366 
L 201.224348 229.251366 
z
" style="fill:#b15928;"/>
   </g>
   <g id="patch_105">
    <path clip-path="url(#pce99e7bc2a)" d="M 216.751304 224.878237 
L 224.514783 224.878237 
L 224.514783 214.184887 
L 216.751304 214.184887 
z
" style="fill:#b15928;"/>
   </g>
   <g id="patch_106">
    <path clip-path="url(#pce99e7bc2a)" d="M 232.278261 240.107022 
L 240.041739 240.107022 
L 240.041739 231.747829 
L 232.278261 231.747829 
z
" style="fill:#b15928;"/>
   </g>
   <g id="patch_107">
    <path clip-path="url(#pce99e7bc2a)" d="M 247.805217 259.2 
L 255.568696 259.2 
L 255.568696 259.2 
L 247.805217 259.2 
z
" style="fill:#b15928;"/>
   </g>
   <g id="patch_108">
    <path clip-path="url(#pce99e7bc2a)" d="M 263.332174 215.639559 
L 271.095652 215.639559 
L 271.095652 202.514478 
L 263.332174 202.514478 
z
" style="fill:#b15928;"/>
   </g>
   <g id="patch_109">
    <path clip-path="url(#pce99e7bc2a)" d="M 278.85913 236.486952 
L 286.622609 236.486952 
L 286.622609 227.732531 
L 278.85913 227.732531 
z
" style="fill:#b15928;"/>
   </g>
   <g id="patch_110">
    <path clip-path="url(#pce99e7bc2a)" d="M 294.386087 149.616267 
L 302.149565 149.616267 
L 302.149565 138.672909 
L 294.386087 138.672909 
z
" style="fill:#b15928;"/>
   </g>
   <g id="patch_111">
    <path clip-path="url(#pce99e7bc2a)" d="M 309.913043 259.2 
L 317.676522 259.2 
L 317.676522 259.2 
L 309.913043 259.2 
z
" style="fill:#b15928;"/>
   </g>
   <g id="patch_112">
    <path clip-path="url(#pce99e7bc2a)" d="M 325.44 116.416213 
L 333.203478 116.416213 
L 333.203478 71.258347 
L 325.44 71.258347 
z
" style="fill:#b15928;"/>
   </g>
   <g id="patch_113">
    <path clip-path="url(#pce99e7bc2a)" d="M 340.966957 228.467176 
L 348.730435 228.467176 
L 348.730435 220.620715 
L 340.966957 220.620715 
z
" style="fill:#b15928;"/>
   </g>
   <g id="patch_114">
    <path clip-path="url(#pce99e7bc2a)" d="M 356.493913 259.2 
L 364.257391 259.2 
L 364.257391 259.2 
L 356.493913 259.2 
z
" style="fill:#b15928;"/>
   </g>
   <g id="patch_115">
    <path clip-path="url(#pce99e7bc2a)" d="M 372.02087 218.590287 
L 379.784348 218.590287 
L 379.784348 210.083975 
L 372.02087 210.083975 
z
" style="fill:#b15928;"/>
   </g>
   <g id="patch_116">
    <path clip-path="url(#pce99e7bc2a)" d="M 387.547826 259.2 
L 395.311304 259.2 
L 395.311304 259.2 
L 387.547826 259.2 
z
" style="fill:#b15928;"/>
   </g>
   <g id="patch_117">
    <path clip-path="url(#pce99e7bc2a)" d="M 403.074783 202.252891 
L 410.838261 202.252891 
L 410.838261 187.662886 
L 403.074783 187.662886 
z
" style="fill:#b15928;"/>
   </g>
   <g id="matplotlib.axis_1">
    <g id="xtick_1">
     <g id="line2d_1">
      <defs>
       <path d="M 0 0 
L 0 3.5 
" id="m52a9d30f7d" style="stroke:#000000;stroke-width:0.8;"/>
      </defs>
      <g>
       <use style="stroke:#000000;stroke-width:0.8;" x="65.363478" xlink:href="#m52a9d30f7d" y="259.2"/>
      </g>
     </g>
     <g id="text_1">
      <!-- D -->
      <defs>
       <path d="M 19.671875 64.796875 
L 19.671875 8.109375 
L 31.59375 8.109375 
Q 46.6875 8.109375 53.6875 14.9375 
Q 60.6875 21.78125 60.6875 36.53125 
Q 60.6875 51.171875 53.6875 57.984375 
Q 46.6875 64.796875 31.59375 64.796875 
z
M 9.8125 72.90625 
L 30.078125 72.90625 
Q 51.265625 72.90625 61.171875 64.09375 
Q 71.09375 55.28125 71.09375 36.53125 
Q 71.09375 17.671875 61.125 8.828125 
Q 51.171875 0 30.078125 0 
L 9.8125 0 
z
" id="DejaVuSans-68"/>
      </defs>
      <g transform="translate(68.122853 273.9)rotate(-90)scale(0.1 -0.1)">
       <use xlink:href="#DejaVuSans-68"/>
      </g>
     </g>
    </g>
    <g id="xtick_2">
     <g id="line2d_2">
      <g>
       <use style="stroke:#000000;stroke-width:0.8;" x="80.890435" xlink:href="#m52a9d30f7d" y="259.2"/>
      </g>
     </g>
     <g id="text_2">
      <!-- E -->
      <defs>
       <path d="M 9.8125 72.90625 
L 55.90625 72.90625 
L 55.90625 64.59375 
L 19.671875 64.59375 
L 19.671875 43.015625 
L 54.390625 43.015625 
L 54.390625 34.71875 
L 19.671875 34.71875 
L 19.671875 8.296875 
L 56.78125 8.296875 
L 56.78125 0 
L 9.8125 0 
z
" id="DejaVuSans-69"/>
      </defs>
      <g transform="translate(83.64981 272.51875)rotate(-90)scale(0.1 -0.1)">
       <use xlink:href="#DejaVuSans-69"/>
      </g>
     </g>
    </g>
    <g id="xtick_3">
     <g id="line2d_3">
      <g>
       <use style="stroke:#000000;stroke-width:0.8;" x="96.417391" xlink:href="#m52a9d30f7d" y="259.2"/>
      </g>
     </g>
    </g>
    <g id="xtick_4">
     <g id="line2d_4">
      <g>
       <use style="stroke:#000000;stroke-width:0.8;" x="111.944348" xlink:href="#m52a9d30f7d" y="259.2"/>
      </g>
     </g>
     <g id="text_3">
      <!-- K -->
      <defs>
       <path d="M 9.8125 72.90625 
L 19.671875 72.90625 
L 19.671875 42.09375 
L 52.390625 72.90625 
L 65.09375 72.90625 
L 28.90625 38.921875 
L 67.671875 0 
L 54.6875 0 
L 19.671875 35.109375 
L 19.671875 0 
L 9.8125 0 
z
" id="DejaVuSans-75"/>
      </defs>
      <g transform="translate(114.703723 272.757812)rotate(-90)scale(0.1 -0.1)">
       <use xlink:href="#DejaVuSans-75"/>
      </g>
     </g>
    </g>
    <g id="xtick_5">
     <g id="line2d_5">
      <g>
       <use style="stroke:#000000;stroke-width:0.8;" x="127.471304" xlink:href="#m52a9d30f7d" y="259.2"/>
      </g>
     </g>
     <g id="text_4">
      <!-- R -->
      <defs>
       <path d="M 44.390625 34.1875 
Q 47.5625 33.109375 50.5625 29.59375 
Q 53.5625 26.078125 56.59375 19.921875 
L 66.609375 0 
L 56 0 
L 46.6875 18.703125 
Q 43.0625 26.03125 39.671875 28.421875 
Q 36.28125 30.8125 30.421875 30.8125 
L 19.671875 30.8125 
L 19.671875 0 
L 9.8125 0 
L 9.8125 72.90625 
L 32.078125 72.90625 
Q 44.578125 72.90625 50.734375 67.671875 
Q 56.890625 62.453125 56.890625 51.90625 
Q 56.890625 45.015625 53.6875 40.46875 
Q 50.484375 35.9375 44.390625 34.1875 
z
M 19.671875 64.796875 
L 19.671875 38.921875 
L 32.078125 38.921875 
Q 39.203125 38.921875 42.84375 42.21875 
Q 46.484375 45.515625 46.484375 51.90625 
Q 46.484375 58.296875 42.84375 61.546875 
Q 39.203125 64.796875 32.078125 64.796875 
z
" id="DejaVuSans-82"/>
      </defs>
      <g transform="translate(130.230679 273.148438)rotate(-90)scale(0.1 -0.1)">
       <use xlink:href="#DejaVuSans-82"/>
      </g>
     </g>
    </g>
    <g id="xtick_6">
     <g id="line2d_6">
      <g>
       <use style="stroke:#000000;stroke-width:0.8;" x="142.998261" xlink:href="#m52a9d30f7d" y="259.2"/>
      </g>
     </g>
     <g id="text_5">
      <!-- H -->
      <defs>
       <path d="M 9.8125 72.90625 
L 19.671875 72.90625 
L 19.671875 43.015625 
L 55.515625 43.015625 
L 55.515625 72.90625 
L 65.375 72.90625 
L 65.375 0 
L 55.515625 0 
L 55.515625 34.71875 
L 19.671875 34.71875 
L 19.671875 0 
L 9.8125 0 
z
" id="DejaVuSans-72"/>
      </defs>
      <g transform="translate(145.757636 273.720312)rotate(-90)scale(0.1 -0.1)">
       <use xlink:href="#DejaVuSans-72"/>
      </g>
     </g>
    </g>
    <g id="xtick_7">
     <g id="line2d_7">
      <g>
       <use style="stroke:#000000;stroke-width:0.8;" x="158.525217" xlink:href="#m52a9d30f7d" y="259.2"/>
      </g>
     </g>
    </g>
    <g id="xtick_8">
     <g id="line2d_8">
      <g>
       <use style="stroke:#000000;stroke-width:0.8;" x="174.052174" xlink:href="#m52a9d30f7d" y="259.2"/>
      </g>
     </g>
     <g id="text_6">
      <!-- G -->
      <defs>
       <path d="M 59.515625 10.40625 
L 59.515625 29.984375 
L 43.40625 29.984375 
L 43.40625 38.09375 
L 69.28125 38.09375 
L 69.28125 6.78125 
Q 63.578125 2.734375 56.6875 0.65625 
Q 49.8125 -1.421875 42 -1.421875 
Q 24.90625 -1.421875 15.25 8.5625 
Q 5.609375 18.5625 5.609375 36.375 
Q 5.609375 54.25 15.25 64.234375 
Q 24.90625 74.21875 42 74.21875 
Q 49.125 74.21875 55.546875 72.453125 
Q 61.96875 70.703125 67.390625 67.28125 
L 67.390625 56.78125 
Q 61.921875 61.421875 55.765625 63.765625 
Q 49.609375 66.109375 42.828125 66.109375 
Q 29.4375 66.109375 22.71875 58.640625 
Q 16.015625 51.171875 16.015625 36.375 
Q 16.015625 21.625 22.71875 14.15625 
Q 29.4375 6.6875 42.828125 6.6875 
Q 48.046875 6.6875 52.140625 7.59375 
Q 56.25 8.5 59.515625 10.40625 
z
" id="DejaVuSans-71"/>
      </defs>
      <g transform="translate(176.811549 273.948437)rotate(-90)scale(0.1 -0.1)">
       <use xlink:href="#DejaVuSans-71"/>
      </g>
     </g>
    </g>
    <g id="xtick_9">
     <g id="line2d_9">
      <g>
       <use style="stroke:#000000;stroke-width:0.8;" x="189.57913" xlink:href="#m52a9d30f7d" y="259.2"/>
      </g>
     </g>
     <g id="text_7">
      <!-- A -->
      <defs>
       <path d="M 34.1875 63.1875 
L 20.796875 26.90625 
L 47.609375 26.90625 
z
M 28.609375 72.90625 
L 39.796875 72.90625 
L 67.578125 0 
L 57.328125 0 
L 50.6875 18.703125 
L 17.828125 18.703125 
L 11.1875 0 
L 0.78125 0 
z
" id="DejaVuSans-65"/>
      </defs>
      <g transform="translate(192.338505 273.040625)rotate(-90)scale(0.1 -0.1)">
       <use xlink:href="#DejaVuSans-65"/>
      </g>
     </g>
    </g>
    <g id="xtick_10">
     <g id="line2d_10">
      <g>
       <use style="stroke:#000000;stroke-width:0.8;" x="205.106087" xlink:href="#m52a9d30f7d" y="259.2"/>
      </g>
     </g>
     <g id="text_8">
      <!-- V -->
      <defs>
       <path d="M 28.609375 0 
L 0.78125 72.90625 
L 11.078125 72.90625 
L 34.1875 11.53125 
L 57.328125 72.90625 
L 67.578125 72.90625 
L 39.796875 0 
z
" id="DejaVuSans-86"/>
      </defs>
      <g transform="translate(207.865462 273.040625)rotate(-90)scale(0.1 -0.1)">
       <use xlink:href="#DejaVuSans-86"/>
      </g>
     </g>
    </g>
    <g id="xtick_11">
     <g id="line2d_11">
      <g>
       <use style="stroke:#000000;stroke-width:0.8;" x="220.633043" xlink:href="#m52a9d30f7d" y="259.2"/>
      </g>
     </g>
     <g id="text_9">
      <!-- L -->
      <defs>
       <path d="M 9.8125 72.90625 
L 19.671875 72.90625 
L 19.671875 8.296875 
L 55.171875 8.296875 
L 55.171875 0 
L 9.8125 0 
z
" id="DejaVuSans-76"/>
      </defs>
      <g transform="translate(223.392418 271.771875)rotate(-90)scale(0.1 -0.1)">
       <use xlink:href="#DejaVuSans-76"/>
      </g>
     </g>
    </g>
    <g id="xtick_12">
     <g id="line2d_12">
      <g>
       <use style="stroke:#000000;stroke-width:0.8;" x="236.16" xlink:href="#m52a9d30f7d" y="259.2"/>
      </g>
     </g>
     <g id="text_10">
      <!-- I -->
      <defs>
       <path d="M 9.8125 72.90625 
L 19.671875 72.90625 
L 19.671875 0 
L 9.8125 0 
z
" id="DejaVuSans-73"/>
      </defs>
      <g transform="translate(238.919375 269.15)rotate(-90)scale(0.1 -0.1)">
       <use xlink:href="#DejaVuSans-73"/>
      </g>
     </g>
    </g>
    <g id="xtick_13">
     <g id="line2d_13">
      <g>
       <use style="stroke:#000000;stroke-width:0.8;" x="251.686957" xlink:href="#m52a9d30f7d" y="259.2"/>
      </g>
     </g>
     <g id="text_11">
      <!-- P -->
      <defs>
       <path d="M 19.671875 64.796875 
L 19.671875 37.40625 
L 32.078125 37.40625 
Q 38.96875 37.40625 42.71875 40.96875 
Q 46.484375 44.53125 46.484375 51.125 
Q 46.484375 57.671875 42.71875 61.234375 
Q 38.96875 64.796875 32.078125 64.796875 
z
M 9.8125 72.90625 
L 32.078125 72.90625 
Q 44.34375 72.90625 50.609375 67.359375 
Q 56.890625 61.8125 56.890625 51.125 
Q 56.890625 40.328125 50.609375 34.8125 
Q 44.34375 29.296875 32.078125 29.296875 
L 19.671875 29.296875 
L 19.671875 0 
L 9.8125 0 
z
" id="DejaVuSans-80"/>
      </defs>
      <g transform="translate(254.446332 272.229687)rotate(-90)scale(0.1 -0.1)">
       <use xlink:href="#DejaVuSans-80"/>
      </g>
     </g>
    </g>
    <g id="xtick_14">
     <g id="line2d_14">
      <g>
       <use style="stroke:#000000;stroke-width:0.8;" x="267.213913" xlink:href="#m52a9d30f7d" y="259.2"/>
      </g>
     </g>
     <g id="text_12">
      <!-- F -->
      <defs>
       <path d="M 9.8125 72.90625 
L 51.703125 72.90625 
L 51.703125 64.59375 
L 19.671875 64.59375 
L 19.671875 43.109375 
L 48.578125 43.109375 
L 48.578125 34.8125 
L 19.671875 34.8125 
L 19.671875 0 
L 9.8125 0 
z
" id="DejaVuSans-70"/>
      </defs>
      <g transform="translate(269.973288 271.951562)rotate(-90)scale(0.1 -0.1)">
       <use xlink:href="#DejaVuSans-70"/>
      </g>
     </g>
    </g>
    <g id="xtick_15">
     <g id="line2d_15">
      <g>
       <use style="stroke:#000000;stroke-width:0.8;" x="282.74087" xlink:href="#m52a9d30f7d" y="259.2"/>
      </g>
     </g>
     <g id="text_13">
      <!-- M -->
      <defs>
       <path d="M 9.8125 72.90625 
L 24.515625 72.90625 
L 43.109375 23.296875 
L 61.8125 72.90625 
L 76.515625 72.90625 
L 76.515625 0 
L 66.890625 0 
L 66.890625 64.015625 
L 48.09375 14.015625 
L 38.1875 14.015625 
L 19.390625 64.015625 
L 19.390625 0 
L 9.8125 0 
z
" id="DejaVuSans-77"/>
      </defs>
      <g transform="translate(285.500245 274.828125)rotate(-90)scale(0.1 -0.1)">
       <use xlink:href="#DejaVuSans-77"/>
      </g>
     </g>
    </g>
    <g id="xtick_16">
     <g id="line2d_16">
      <g>
       <use style="stroke:#000000;stroke-width:0.8;" x="298.267826" xlink:href="#m52a9d30f7d" y="259.2"/>
      </g>
     </g>
     <g id="text_14">
      <!-- W -->
      <defs>
       <path d="M 3.328125 72.90625 
L 13.28125 72.90625 
L 28.609375 11.28125 
L 43.890625 72.90625 
L 54.984375 72.90625 
L 70.3125 11.28125 
L 85.59375 72.90625 
L 95.609375 72.90625 
L 77.296875 0 
L 64.890625 0 
L 49.515625 63.28125 
L 33.984375 0 
L 21.578125 0 
z
" id="DejaVuSans-87"/>
      </defs>
      <g transform="translate(301.027201 276.0875)rotate(-90)scale(0.1 -0.1)">
       <use xlink:href="#DejaVuSans-87"/>
      </g>
     </g>
    </g>
    <g id="xtick_17">
     <g id="line2d_17">
      <g>
       <use style="stroke:#000000;stroke-width:0.8;" x="313.794783" xlink:href="#m52a9d30f7d" y="259.2"/>
      </g>
     </g>
    </g>
    <g id="xtick_18">
     <g id="line2d_18">
      <g>
       <use style="stroke:#000000;stroke-width:0.8;" x="329.321739" xlink:href="#m52a9d30f7d" y="259.2"/>
      </g>
     </g>
     <g id="text_15">
      <!-- S -->
      <defs>
       <path d="M 53.515625 70.515625 
L 53.515625 60.890625 
Q 47.90625 63.578125 42.921875 64.890625 
Q 37.9375 66.21875 33.296875 66.21875 
Q 25.25 66.21875 20.875 63.09375 
Q 16.5 59.96875 16.5 54.203125 
Q 16.5 49.359375 19.40625 46.890625 
Q 22.3125 44.4375 30.421875 42.921875 
L 36.375 41.703125 
Q 47.40625 39.59375 52.65625 34.296875 
Q 57.90625 29 57.90625 20.125 
Q 57.90625 9.515625 50.796875 4.046875 
Q 43.703125 -1.421875 29.984375 -1.421875 
Q 24.8125 -1.421875 18.96875 -0.25 
Q 13.140625 0.921875 6.890625 3.21875 
L 6.890625 13.375 
Q 12.890625 10.015625 18.65625 8.296875 
Q 24.421875 6.59375 29.984375 6.59375 
Q 38.421875 6.59375 43.015625 9.90625 
Q 47.609375 13.234375 47.609375 19.390625 
Q 47.609375 24.75 44.3125 27.78125 
Q 41.015625 30.8125 33.5 32.328125 
L 27.484375 33.5 
Q 16.453125 35.6875 11.515625 40.375 
Q 6.59375 45.0625 6.59375 53.421875 
Q 6.59375 63.09375 13.40625 68.65625 
Q 20.21875 74.21875 32.171875 74.21875 
Q 37.3125 74.21875 42.625 73.28125 
Q 47.953125 72.359375 53.515625 70.515625 
z
" id="DejaVuSans-83"/>
      </defs>
      <g transform="translate(332.081114 272.548437)rotate(-90)scale(0.1 -0.1)">
       <use xlink:href="#DejaVuSans-83"/>
      </g>
     </g>
    </g>
    <g id="xtick_19">
     <g id="line2d_19">
      <g>
       <use style="stroke:#000000;stroke-width:0.8;" x="344.848696" xlink:href="#m52a9d30f7d" y="259.2"/>
      </g>
     </g>
     <g id="text_16">
      <!-- T -->
      <defs>
       <path d="M -0.296875 72.90625 
L 61.375 72.90625 
L 61.375 64.59375 
L 35.5 64.59375 
L 35.5 0 
L 25.59375 0 
L 25.59375 64.59375 
L -0.296875 64.59375 
z
" id="DejaVuSans-84"/>
      </defs>
      <g transform="translate(347.608071 272.307812)rotate(-90)scale(0.1 -0.1)">
       <use xlink:href="#DejaVuSans-84"/>
      </g>
     </g>
    </g>
    <g id="xtick_20">
     <g id="line2d_20">
      <g>
       <use style="stroke:#000000;stroke-width:0.8;" x="360.375652" xlink:href="#m52a9d30f7d" y="259.2"/>
      </g>
     </g>
     <g id="text_17">
      <!-- C -->
      <defs>
       <path d="M 64.40625 67.28125 
L 64.40625 56.890625 
Q 59.421875 61.53125 53.78125 63.8125 
Q 48.140625 66.109375 41.796875 66.109375 
Q 29.296875 66.109375 22.65625 58.46875 
Q 16.015625 50.828125 16.015625 36.375 
Q 16.015625 21.96875 22.65625 14.328125 
Q 29.296875 6.6875 41.796875 6.6875 
Q 48.140625 6.6875 53.78125 8.984375 
Q 59.421875 11.28125 64.40625 15.921875 
L 64.40625 5.609375 
Q 59.234375 2.09375 53.4375 0.328125 
Q 47.65625 -1.421875 41.21875 -1.421875 
Q 24.65625 -1.421875 15.125 8.703125 
Q 5.609375 18.84375 5.609375 36.375 
Q 5.609375 53.953125 15.125 64.078125 
Q 24.65625 74.21875 41.21875 74.21875 
Q 47.75 74.21875 53.53125 72.484375 
Q 59.328125 70.75 64.40625 67.28125 
z
" id="DejaVuSans-67"/>
      </defs>
      <g transform="translate(363.135027 273.182812)rotate(-90)scale(0.1 -0.1)">
       <use xlink:href="#DejaVuSans-67"/>
      </g>
     </g>
    </g>
    <g id="xtick_21">
     <g id="line2d_21">
      <g>
       <use style="stroke:#000000;stroke-width:0.8;" x="375.902609" xlink:href="#m52a9d30f7d" y="259.2"/>
      </g>
     </g>
     <g id="text_18">
      <!-- Y -->
      <defs>
       <path d="M -0.203125 72.90625 
L 10.40625 72.90625 
L 30.609375 42.921875 
L 50.6875 72.90625 
L 61.28125 72.90625 
L 35.5 34.71875 
L 35.5 0 
L 25.59375 0 
L 25.59375 34.71875 
z
" id="DejaVuSans-89"/>
      </defs>
      <g transform="translate(378.661984 272.307812)rotate(-90)scale(0.1 -0.1)">
       <use xlink:href="#DejaVuSans-89"/>
      </g>
     </g>
    </g>
    <g id="xtick_22">
     <g id="line2d_22">
      <g>
       <use style="stroke:#000000;stroke-width:0.8;" x="391.429565" xlink:href="#m52a9d30f7d" y="259.2"/>
      </g>
     </g>
     <g id="text_19">
      <!-- N -->
      <defs>
       <path d="M 9.8125 72.90625 
L 23.09375 72.90625 
L 55.421875 11.921875 
L 55.421875 72.90625 
L 64.984375 72.90625 
L 64.984375 0 
L 51.703125 0 
L 19.390625 60.984375 
L 19.390625 0 
L 9.8125 0 
z
" id="DejaVuSans-78"/>
      </defs>
      <g transform="translate(394.18894 273.68125)rotate(-90)scale(0.1 -0.1)">
       <use xlink:href="#DejaVuSans-78"/>
      </g>
     </g>
    </g>
    <g id="xtick_23">
     <g id="line2d_23">
      <g>
       <use style="stroke:#000000;stroke-width:0.8;" x="406.956522" xlink:href="#m52a9d30f7d" y="259.2"/>
      </g>
     </g>
     <g id="text_20">
      <!-- Q -->
      <defs>
       <path d="M 39.40625 66.21875 
Q 28.65625 66.21875 22.328125 58.203125 
Q 16.015625 50.203125 16.015625 36.375 
Q 16.015625 22.609375 22.328125 14.59375 
Q 28.65625 6.59375 39.40625 6.59375 
Q 50.140625 6.59375 56.421875 14.59375 
Q 62.703125 22.609375 62.703125 36.375 
Q 62.703125 50.203125 56.421875 58.203125 
Q 50.140625 66.21875 39.40625 66.21875 
z
M 53.21875 1.3125 
L 66.21875 -12.890625 
L 54.296875 -12.890625 
L 43.5 -1.21875 
Q 41.890625 -1.3125 41.03125 -1.359375 
Q 40.1875 -1.421875 39.40625 -1.421875 
Q 24.03125 -1.421875 14.8125 8.859375 
Q 5.609375 19.140625 5.609375 36.375 
Q 5.609375 53.65625 14.8125 63.9375 
Q 24.03125 74.21875 39.40625 74.21875 
Q 54.734375 74.21875 63.90625 63.9375 
Q 73.09375 53.65625 73.09375 36.375 
Q 73.09375 23.6875 67.984375 14.640625 
Q 62.890625 5.609375 53.21875 1.3125 
z
" id="DejaVuSans-81"/>
      </defs>
      <g transform="translate(409.715897 274.071875)rotate(-90)scale(0.1 -0.1)">
       <use xlink:href="#DejaVuSans-81"/>
      </g>
     </g>
    </g>
   </g>
   <g id="matplotlib.axis_2">
    <g id="ytick_1">
     <g id="line2d_24">
      <defs>
       <path d="M 0 0 
L -3.5 0 
" id="m560c91f7a0" style="stroke:#000000;stroke-width:0.8;"/>
      </defs>
      <g>
       <use style="stroke:#000000;stroke-width:0.8;" x="57.6" xlink:href="#m560c91f7a0" y="259.2"/>
      </g>
     </g>
     <g id="text_21">
      <!-- 0 -->
      <defs>
       <path d="M 31.78125 66.40625 
Q 24.171875 66.40625 20.328125 58.90625 
Q 16.5 51.421875 16.5 36.375 
Q 16.5 21.390625 20.328125 13.890625 
Q 24.171875 6.390625 31.78125 6.390625 
Q 39.453125 6.390625 43.28125 13.890625 
Q 47.125 21.390625 47.125 36.375 
Q 47.125 51.421875 43.28125 58.90625 
Q 39.453125 66.40625 31.78125 66.40625 
z
M 31.78125 74.21875 
Q 44.046875 74.21875 50.515625 64.515625 
Q 56.984375 54.828125 56.984375 36.375 
Q 56.984375 17.96875 50.515625 8.265625 
Q 44.046875 -1.421875 31.78125 -1.421875 
Q 19.53125 -1.421875 13.0625 8.265625 
Q 6.59375 17.96875 6.59375 36.375 
Q 6.59375 54.828125 13.0625 64.515625 
Q 19.53125 74.21875 31.78125 74.21875 
z
" id="DejaVuSans-48"/>
      </defs>
      <g transform="translate(44.2375 262.999219)scale(0.1 -0.1)">
       <use xlink:href="#DejaVuSans-48"/>
      </g>
     </g>
    </g>
    <g id="ytick_2">
     <g id="line2d_25">
      <g>
       <use style="stroke:#000000;stroke-width:0.8;" x="57.6" xlink:href="#m560c91f7a0" y="221.232919"/>
      </g>
     </g>
     <g id="text_22">
      <!-- 5 -->
      <defs>
       <path d="M 10.796875 72.90625 
L 49.515625 72.90625 
L 49.515625 64.59375 
L 19.828125 64.59375 
L 19.828125 46.734375 
Q 21.96875 47.46875 24.109375 47.828125 
Q 26.265625 48.1875 28.421875 48.1875 
Q 40.625 48.1875 47.75 41.5 
Q 54.890625 34.8125 54.890625 23.390625 
Q 54.890625 11.625 47.5625 5.09375 
Q 40.234375 -1.421875 26.90625 -1.421875 
Q 22.3125 -1.421875 17.546875 -0.640625 
Q 12.796875 0.140625 7.71875 1.703125 
L 7.71875 11.625 
Q 12.109375 9.234375 16.796875 8.0625 
Q 21.484375 6.890625 26.703125 6.890625 
Q 35.15625 6.890625 40.078125 11.328125 
Q 45.015625 15.765625 45.015625 23.390625 
Q 45.015625 31 40.078125 35.4375 
Q 35.15625 39.890625 26.703125 39.890625 
Q 22.75 39.890625 18.8125 39.015625 
Q 14.890625 38.140625 10.796875 36.28125 
z
" id="DejaVuSans-53"/>
      </defs>
      <g transform="translate(44.2375 225.032138)scale(0.1 -0.1)">
       <use xlink:href="#DejaVuSans-53"/>
      </g>
     </g>
    </g>
    <g id="ytick_3">
     <g id="line2d_26">
      <g>
       <use style="stroke:#000000;stroke-width:0.8;" x="57.6" xlink:href="#m560c91f7a0" y="183.265839"/>
      </g>
     </g>
     <g id="text_23">
      <!-- 10 -->
      <defs>
       <path d="M 12.40625 8.296875 
L 28.515625 8.296875 
L 28.515625 63.921875 
L 10.984375 60.40625 
L 10.984375 69.390625 
L 28.421875 72.90625 
L 38.28125 72.90625 
L 38.28125 8.296875 
L 54.390625 8.296875 
L 54.390625 0 
L 12.40625 0 
z
" id="DejaVuSans-49"/>
      </defs>
      <g transform="translate(37.875 187.065057)scale(0.1 -0.1)">
       <use xlink:href="#DejaVuSans-49"/>
       <use x="63.623047" xlink:href="#DejaVuSans-48"/>
      </g>
     </g>
    </g>
    <g id="ytick_4">
     <g id="line2d_27">
      <g>
       <use style="stroke:#000000;stroke-width:0.8;" x="57.6" xlink:href="#m560c91f7a0" y="145.298758"/>
      </g>
     </g>
     <g id="text_24">
      <!-- 15 -->
      <g transform="translate(37.875 149.097977)scale(0.1 -0.1)">
       <use xlink:href="#DejaVuSans-49"/>
       <use x="63.623047" xlink:href="#DejaVuSans-53"/>
      </g>
     </g>
    </g>
    <g id="ytick_5">
     <g id="line2d_28">
      <g>
       <use style="stroke:#000000;stroke-width:0.8;" x="57.6" xlink:href="#m560c91f7a0" y="107.331677"/>
      </g>
     </g>
     <g id="text_25">
      <!-- 20 -->
      <defs>
       <path d="M 19.1875 8.296875 
L 53.609375 8.296875 
L 53.609375 0 
L 7.328125 0 
L 7.328125 8.296875 
Q 12.9375 14.109375 22.625 23.890625 
Q 32.328125 33.6875 34.8125 36.53125 
Q 39.546875 41.84375 41.421875 45.53125 
Q 43.3125 49.21875 43.3125 52.78125 
Q 43.3125 58.59375 39.234375 62.25 
Q 35.15625 65.921875 28.609375 65.921875 
Q 23.96875 65.921875 18.8125 64.3125 
Q 13.671875 62.703125 7.8125 59.421875 
L 7.8125 69.390625 
Q 13.765625 71.78125 18.9375 73 
Q 24.125 74.21875 28.421875 74.21875 
Q 39.75 74.21875 46.484375 68.546875 
Q 53.21875 62.890625 53.21875 53.421875 
Q 53.21875 48.921875 51.53125 44.890625 
Q 49.859375 40.875 45.40625 35.40625 
Q 44.1875 33.984375 37.640625 27.21875 
Q 31.109375 20.453125 19.1875 8.296875 
z
" id="DejaVuSans-50"/>
      </defs>
      <g transform="translate(37.875 111.130896)scale(0.1 -0.1)">
       <use xlink:href="#DejaVuSans-50"/>
       <use x="63.623047" xlink:href="#DejaVuSans-48"/>
      </g>
     </g>
    </g>
    <g id="ytick_6">
     <g id="line2d_29">
      <g>
       <use style="stroke:#000000;stroke-width:0.8;" x="57.6" xlink:href="#m560c91f7a0" y="69.364597"/>
      </g>
     </g>
     <g id="text_26">
      <!-- 25 -->
      <g transform="translate(37.875 73.163816)scale(0.1 -0.1)">
       <use xlink:href="#DejaVuSans-50"/>
       <use x="63.623047" xlink:href="#DejaVuSans-53"/>
      </g>
     </g>
    </g>
    <g id="text_27">
     <!-- Number of contacts -->
     <defs>
      <path d="M 8.5 21.578125 
L 8.5 54.6875 
L 17.484375 54.6875 
L 17.484375 21.921875 
Q 17.484375 14.15625 20.5 10.265625 
Q 23.53125 6.390625 29.59375 6.390625 
Q 36.859375 6.390625 41.078125 11.03125 
Q 45.3125 15.671875 45.3125 23.6875 
L 45.3125 54.6875 
L 54.296875 54.6875 
L 54.296875 0 
L 45.3125 0 
L 45.3125 8.40625 
Q 42.046875 3.421875 37.71875 1 
Q 33.40625 -1.421875 27.6875 -1.421875 
Q 18.265625 -1.421875 13.375 4.4375 
Q 8.5 10.296875 8.5 21.578125 
z
M 31.109375 56 
z
" id="DejaVuSans-117"/>
      <path d="M 52 44.1875 
Q 55.375 50.25 60.0625 53.125 
Q 64.75 56 71.09375 56 
Q 79.640625 56 84.28125 50.015625 
Q 88.921875 44.046875 88.921875 33.015625 
L 88.921875 0 
L 79.890625 0 
L 79.890625 32.71875 
Q 79.890625 40.578125 77.09375 44.375 
Q 74.3125 48.1875 68.609375 48.1875 
Q 61.625 48.1875 57.5625 43.546875 
Q 53.515625 38.921875 53.515625 30.90625 
L 53.515625 0 
L 44.484375 0 
L 44.484375 32.71875 
Q 44.484375 40.625 41.703125 44.40625 
Q 38.921875 48.1875 33.109375 48.1875 
Q 26.21875 48.1875 22.15625 43.53125 
Q 18.109375 38.875 18.109375 30.90625 
L 18.109375 0 
L 9.078125 0 
L 9.078125 54.6875 
L 18.109375 54.6875 
L 18.109375 46.1875 
Q 21.1875 51.21875 25.484375 53.609375 
Q 29.78125 56 35.6875 56 
Q 41.65625 56 45.828125 52.96875 
Q 50 49.953125 52 44.1875 
z
" id="DejaVuSans-109"/>
      <path d="M 48.6875 27.296875 
Q 48.6875 37.203125 44.609375 42.84375 
Q 40.53125 48.484375 33.40625 48.484375 
Q 26.265625 48.484375 22.1875 42.84375 
Q 18.109375 37.203125 18.109375 27.296875 
Q 18.109375 17.390625 22.1875 11.75 
Q 26.265625 6.109375 33.40625 6.109375 
Q 40.53125 6.109375 44.609375 11.75 
Q 48.6875 17.390625 48.6875 27.296875 
z
M 18.109375 46.390625 
Q 20.953125 51.265625 25.265625 53.625 
Q 29.59375 56 35.59375 56 
Q 45.5625 56 51.78125 48.09375 
Q 58.015625 40.1875 58.015625 27.296875 
Q 58.015625 14.40625 51.78125 6.484375 
Q 45.5625 -1.421875 35.59375 -1.421875 
Q 29.59375 -1.421875 25.265625 0.953125 
Q 20.953125 3.328125 18.109375 8.203125 
L 18.109375 0 
L 9.078125 0 
L 9.078125 75.984375 
L 18.109375 75.984375 
z
" id="DejaVuSans-98"/>
      <path d="M 56.203125 29.59375 
L 56.203125 25.203125 
L 14.890625 25.203125 
Q 15.484375 15.921875 20.484375 11.0625 
Q 25.484375 6.203125 34.421875 6.203125 
Q 39.59375 6.203125 44.453125 7.46875 
Q 49.3125 8.734375 54.109375 11.28125 
L 54.109375 2.78125 
Q 49.265625 0.734375 44.1875 -0.34375 
Q 39.109375 -1.421875 33.890625 -1.421875 
Q 20.796875 -1.421875 13.15625 6.1875 
Q 5.515625 13.8125 5.515625 26.8125 
Q 5.515625 40.234375 12.765625 48.109375 
Q 20.015625 56 32.328125 56 
Q 43.359375 56 49.78125 48.890625 
Q 56.203125 41.796875 56.203125 29.59375 
z
M 47.21875 32.234375 
Q 47.125 39.59375 43.09375 43.984375 
Q 39.0625 48.390625 32.421875 48.390625 
Q 24.90625 48.390625 20.390625 44.140625 
Q 15.875 39.890625 15.1875 32.171875 
z
" id="DejaVuSans-101"/>
      <path d="M 41.109375 46.296875 
Q 39.59375 47.171875 37.8125 47.578125 
Q 36.03125 48 33.890625 48 
Q 26.265625 48 22.1875 43.046875 
Q 18.109375 38.09375 18.109375 28.8125 
L 18.109375 0 
L 9.078125 0 
L 9.078125 54.6875 
L 18.109375 54.6875 
L 18.109375 46.1875 
Q 20.953125 51.171875 25.484375 53.578125 
Q 30.03125 56 36.53125 56 
Q 37.453125 56 38.578125 55.875 
Q 39.703125 55.765625 41.0625 55.515625 
z
" id="DejaVuSans-114"/>
      <path id="DejaVuSans-32"/>
      <path d="M 30.609375 48.390625 
Q 23.390625 48.390625 19.1875 42.75 
Q 14.984375 37.109375 14.984375 27.296875 
Q 14.984375 17.484375 19.15625 11.84375 
Q 23.34375 6.203125 30.609375 6.203125 
Q 37.796875 6.203125 41.984375 11.859375 
Q 46.1875 17.53125 46.1875 27.296875 
Q 46.1875 37.015625 41.984375 42.703125 
Q 37.796875 48.390625 30.609375 48.390625 
z
M 30.609375 56 
Q 42.328125 56 49.015625 48.375 
Q 55.71875 40.765625 55.71875 27.296875 
Q 55.71875 13.875 49.015625 6.21875 
Q 42.328125 -1.421875 30.609375 -1.421875 
Q 18.84375 -1.421875 12.171875 6.21875 
Q 5.515625 13.875 5.515625 27.296875 
Q 5.515625 40.765625 12.171875 48.375 
Q 18.84375 56 30.609375 56 
z
" id="DejaVuSans-111"/>
      <path d="M 37.109375 75.984375 
L 37.109375 68.5 
L 28.515625 68.5 
Q 23.6875 68.5 21.796875 66.546875 
Q 19.921875 64.59375 19.921875 59.515625 
L 19.921875 54.6875 
L 34.71875 54.6875 
L 34.71875 47.703125 
L 19.921875 47.703125 
L 19.921875 0 
L 10.890625 0 
L 10.890625 47.703125 
L 2.296875 47.703125 
L 2.296875 54.6875 
L 10.890625 54.6875 
L 10.890625 58.5 
Q 10.890625 67.625 15.140625 71.796875 
Q 19.390625 75.984375 28.609375 75.984375 
z
" id="DejaVuSans-102"/>
      <path d="M 48.78125 52.59375 
L 48.78125 44.1875 
Q 44.96875 46.296875 41.140625 47.34375 
Q 37.3125 48.390625 33.40625 48.390625 
Q 24.65625 48.390625 19.8125 42.84375 
Q 14.984375 37.3125 14.984375 27.296875 
Q 14.984375 17.28125 19.8125 11.734375 
Q 24.65625 6.203125 33.40625 6.203125 
Q 37.3125 6.203125 41.140625 7.25 
Q 44.96875 8.296875 48.78125 10.40625 
L 48.78125 2.09375 
Q 45.015625 0.34375 40.984375 -0.53125 
Q 36.96875 -1.421875 32.421875 -1.421875 
Q 20.0625 -1.421875 12.78125 6.34375 
Q 5.515625 14.109375 5.515625 27.296875 
Q 5.515625 40.671875 12.859375 48.328125 
Q 20.21875 56 33.015625 56 
Q 37.15625 56 41.109375 55.140625 
Q 45.0625 54.296875 48.78125 52.59375 
z
" id="DejaVuSans-99"/>
      <path d="M 54.890625 33.015625 
L 54.890625 0 
L 45.90625 0 
L 45.90625 32.71875 
Q 45.90625 40.484375 42.875 44.328125 
Q 39.84375 48.1875 33.796875 48.1875 
Q 26.515625 48.1875 22.3125 43.546875 
Q 18.109375 38.921875 18.109375 30.90625 
L 18.109375 0 
L 9.078125 0 
L 9.078125 54.6875 
L 18.109375 54.6875 
L 18.109375 46.1875 
Q 21.34375 51.125 25.703125 53.5625 
Q 30.078125 56 35.796875 56 
Q 45.21875 56 50.046875 50.171875 
Q 54.890625 44.34375 54.890625 33.015625 
z
" id="DejaVuSans-110"/>
      <path d="M 18.3125 70.21875 
L 18.3125 54.6875 
L 36.8125 54.6875 
L 36.8125 47.703125 
L 18.3125 47.703125 
L 18.3125 18.015625 
Q 18.3125 11.328125 20.140625 9.421875 
Q 21.96875 7.515625 27.59375 7.515625 
L 36.8125 7.515625 
L 36.8125 0 
L 27.59375 0 
Q 17.1875 0 13.234375 3.875 
Q 9.28125 7.765625 9.28125 18.015625 
L 9.28125 47.703125 
L 2.6875 47.703125 
L 2.6875 54.6875 
L 9.28125 54.6875 
L 9.28125 70.21875 
z
" id="DejaVuSans-116"/>
      <path d="M 34.28125 27.484375 
Q 23.390625 27.484375 19.1875 25 
Q 14.984375 22.515625 14.984375 16.5 
Q 14.984375 11.71875 18.140625 8.90625 
Q 21.296875 6.109375 26.703125 6.109375 
Q 34.1875 6.109375 38.703125 11.40625 
Q 43.21875 16.703125 43.21875 25.484375 
L 43.21875 27.484375 
z
M 52.203125 31.203125 
L 52.203125 0 
L 43.21875 0 
L 43.21875 8.296875 
Q 40.140625 3.328125 35.546875 0.953125 
Q 30.953125 -1.421875 24.3125 -1.421875 
Q 15.921875 -1.421875 10.953125 3.296875 
Q 6 8.015625 6 15.921875 
Q 6 25.140625 12.171875 29.828125 
Q 18.359375 34.515625 30.609375 34.515625 
L 43.21875 34.515625 
L 43.21875 35.40625 
Q 43.21875 41.609375 39.140625 45 
Q 35.0625 48.390625 27.6875 48.390625 
Q 23 48.390625 18.546875 47.265625 
Q 14.109375 46.140625 10.015625 43.890625 
L 10.015625 52.203125 
Q 14.9375 54.109375 19.578125 55.046875 
Q 24.21875 56 28.609375 56 
Q 40.484375 56 46.34375 49.84375 
Q 52.203125 43.703125 52.203125 31.203125 
z
" id="DejaVuSans-97"/>
      <path d="M 44.28125 53.078125 
L 44.28125 44.578125 
Q 40.484375 46.53125 36.375 47.5 
Q 32.28125 48.484375 27.875 48.484375 
Q 21.1875 48.484375 17.84375 46.4375 
Q 14.5 44.390625 14.5 40.28125 
Q 14.5 37.15625 16.890625 35.375 
Q 19.28125 33.59375 26.515625 31.984375 
L 29.59375 31.296875 
Q 39.15625 29.25 43.1875 25.515625 
Q 47.21875 21.78125 47.21875 15.09375 
Q 47.21875 7.46875 41.1875 3.015625 
Q 35.15625 -1.421875 24.609375 -1.421875 
Q 20.21875 -1.421875 15.453125 -0.5625 
Q 10.6875 0.296875 5.421875 2 
L 5.421875 11.28125 
Q 10.40625 8.6875 15.234375 7.390625 
Q 20.0625 6.109375 24.8125 6.109375 
Q 31.15625 6.109375 34.5625 8.28125 
Q 37.984375 10.453125 37.984375 14.40625 
Q 37.984375 18.0625 35.515625 20.015625 
Q 33.0625 21.96875 24.703125 23.78125 
L 21.578125 24.515625 
Q 13.234375 26.265625 9.515625 29.90625 
Q 5.8125 33.546875 5.8125 39.890625 
Q 5.8125 47.609375 11.28125 51.796875 
Q 16.75 56 26.8125 56 
Q 31.78125 56 36.171875 55.265625 
Q 40.578125 54.546875 44.28125 53.078125 
z
" id="DejaVuSans-115"/>
     </defs>
     <g transform="translate(31.795312 199.735219)rotate(-90)scale(0.1 -0.1)">
      <use xlink:href="#DejaVuSans-78"/>
      <use x="74.804688" xlink:href="#DejaVuSans-117"/>
      <use x="138.183594" xlink:href="#DejaVuSans-109"/>
      <use x="235.595703" xlink:href="#DejaVuSans-98"/>
      <use x="299.072266" xlink:href="#DejaVuSans-101"/>
      <use x="360.595703" xlink:href="#DejaVuSans-114"/>
      <use x="401.708984" xlink:href="#DejaVuSans-32"/>
      <use x="433.496094" xlink:href="#DejaVuSans-111"/>
      <use x="494.677734" xlink:href="#DejaVuSans-102"/>
      <use x="529.882812" xlink:href="#DejaVuSans-32"/>
      <use x="561.669922" xlink:href="#DejaVuSans-99"/>
      <use x="616.650391" xlink:href="#DejaVuSans-111"/>
      <use x="677.832031" xlink:href="#DejaVuSans-110"/>
      <use x="741.210938" xlink:href="#DejaVuSans-116"/>
      <use x="780.419922" xlink:href="#DejaVuSans-97"/>
      <use x="841.699219" xlink:href="#DejaVuSans-99"/>
      <use x="896.679688" xlink:href="#DejaVuSans-116"/>
      <use x="935.888672" xlink:href="#DejaVuSans-115"/>
     </g>
    </g>
   </g>
   <g id="line2d_30">
    <path clip-path="url(#pce99e7bc2a)" d="M 96.417391 259.2 
L 96.417391 41.472 
" style="fill:none;stroke:#000000;stroke-linecap:square;stroke-width:0.6;"/>
   </g>
   <g id="line2d_31">
    <path clip-path="url(#pce99e7bc2a)" d="M 158.525217 259.2 
L 158.525217 41.472 
" style="fill:none;stroke:#000000;stroke-linecap:square;stroke-width:0.6;"/>
   </g>
   <g id="line2d_32">
    <path clip-path="url(#pce99e7bc2a)" d="M 313.794783 259.2 
L 313.794783 41.472 
" style="fill:none;stroke:#000000;stroke-linecap:square;stroke-width:0.6;"/>
   </g>
   <g id="patch_118">
    <path d="M 57.6 259.2 
L 57.6 41.472 
" style="fill:none;stroke:#000000;stroke-linecap:square;stroke-linejoin:miter;stroke-width:0.8;"/>
   </g>
   <g id="patch_119">
    <path d="M 414.72 259.2 
L 414.72 41.472 
" style="fill:none;stroke:#000000;stroke-linecap:square;stroke-linejoin:miter;stroke-width:0.8;"/>
   </g>
   <g id="patch_120">
    <path d="M 57.6 259.2 
L 414.72 259.2 
" style="fill:none;stroke:#000000;stroke-linecap:square;stroke-linejoin:miter;stroke-width:0.8;"/>
   </g>
   <g id="patch_121">
    <path d="M 57.6 41.472 
L 414.72 41.472 
" style="fill:none;stroke:#000000;stroke-linecap:square;stroke-linejoin:miter;stroke-width:0.8;"/>
   </g>
   <g id="text_28">
    <g id="patch_122">
     <path d="M 69.126957 288.059936 
L 106.867582 288.059936 
L 106.867582 270.381811 
L 69.126957 270.381811 
z
" style="fill:none;opacity:0;"/>
    </g>
    <!-- Acidic -->
    <defs>
     <path d="M 9.421875 54.6875 
L 18.40625 54.6875 
L 18.40625 0 
L 9.421875 0 
z
M 9.421875 75.984375 
L 18.40625 75.984375 
L 18.40625 64.59375 
L 9.421875 64.59375 
z
" id="DejaVuSans-105"/>
     <path d="M 45.40625 46.390625 
L 45.40625 75.984375 
L 54.390625 75.984375 
L 54.390625 0 
L 45.40625 0 
L 45.40625 8.203125 
Q 42.578125 3.328125 38.25 0.953125 
Q 33.9375 -1.421875 27.875 -1.421875 
Q 17.96875 -1.421875 11.734375 6.484375 
Q 5.515625 14.40625 5.515625 27.296875 
Q 5.515625 40.1875 11.734375 48.09375 
Q 17.96875 56 27.875 56 
Q 33.9375 56 38.25 53.625 
Q 42.578125 51.265625 45.40625 46.390625 
z
M 14.796875 27.296875 
Q 14.796875 17.390625 18.875 11.75 
Q 22.953125 6.109375 30.078125 6.109375 
Q 37.203125 6.109375 41.296875 11.75 
Q 45.40625 17.390625 45.40625 27.296875 
Q 45.40625 37.203125 41.296875 42.84375 
Q 37.203125 48.484375 30.078125 48.484375 
Q 22.953125 48.484375 18.875 42.84375 
Q 14.796875 37.203125 14.796875 27.296875 
z
" id="DejaVuSans-100"/>
    </defs>
    <g transform="translate(73.126957 281.980248)scale(0.1 -0.1)">
     <use xlink:href="#DejaVuSans-65"/>
     <use x="68.392578" xlink:href="#DejaVuSans-99"/>
     <use x="123.373047" xlink:href="#DejaVuSans-105"/>
     <use x="151.15625" xlink:href="#DejaVuSans-100"/>
     <use x="214.632812" xlink:href="#DejaVuSans-105"/>
     <use x="242.416016" xlink:href="#DejaVuSans-99"/>
    </g>
   </g>
   <g id="text_29">
    <g id="patch_123">
     <path d="M 115.707826 288.059936 
L 150.182826 288.059936 
L 150.182826 270.381811 
L 115.707826 270.381811 
z
" style="fill:none;opacity:0;"/>
    </g>
    <!-- Basic -->
    <defs>
     <path d="M 19.671875 34.8125 
L 19.671875 8.109375 
L 35.5 8.109375 
Q 43.453125 8.109375 47.28125 11.40625 
Q 51.125 14.703125 51.125 21.484375 
Q 51.125 28.328125 47.28125 31.5625 
Q 43.453125 34.8125 35.5 34.8125 
z
M 19.671875 64.796875 
L 19.671875 42.828125 
L 34.28125 42.828125 
Q 41.5 42.828125 45.03125 45.53125 
Q 48.578125 48.25 48.578125 53.8125 
Q 48.578125 59.328125 45.03125 62.0625 
Q 41.5 64.796875 34.28125 64.796875 
z
M 9.8125 72.90625 
L 35.015625 72.90625 
Q 46.296875 72.90625 52.390625 68.21875 
Q 58.5 63.53125 58.5 54.890625 
Q 58.5 48.1875 55.375 44.234375 
Q 52.25 40.28125 46.1875 39.3125 
Q 53.46875 37.75 57.5 32.78125 
Q 61.53125 27.828125 61.53125 20.40625 
Q 61.53125 10.640625 54.890625 5.3125 
Q 48.25 0 35.984375 0 
L 9.8125 0 
z
" id="DejaVuSans-66"/>
    </defs>
    <g transform="translate(119.707826 281.980248)scale(0.1 -0.1)">
     <use xlink:href="#DejaVuSans-66"/>
     <use x="68.603516" xlink:href="#DejaVuSans-97"/>
     <use x="129.882812" xlink:href="#DejaVuSans-115"/>
     <use x="181.982422" xlink:href="#DejaVuSans-105"/>
     <use x="209.765625" xlink:href="#DejaVuSans-99"/>
    </g>
   </g>
   <g id="text_30">
    <g id="patch_124">
     <path d="M 201.106087 288.059936 
L 272.549837 288.059936 
L 272.549837 270.381811 
L 201.106087 270.381811 
z
" style="fill:none;opacity:0;"/>
    </g>
    <!-- Hydrophobic -->
    <defs>
     <path d="M 32.171875 -5.078125 
Q 28.375 -14.84375 24.75 -17.8125 
Q 21.140625 -20.796875 15.09375 -20.796875 
L 7.90625 -20.796875 
L 7.90625 -13.28125 
L 13.1875 -13.28125 
Q 16.890625 -13.28125 18.9375 -11.515625 
Q 21 -9.765625 23.484375 -3.21875 
L 25.09375 0.875 
L 2.984375 54.6875 
L 12.5 54.6875 
L 29.59375 11.921875 
L 46.6875 54.6875 
L 56.203125 54.6875 
z
" id="DejaVuSans-121"/>
     <path d="M 18.109375 8.203125 
L 18.109375 -20.796875 
L 9.078125 -20.796875 
L 9.078125 54.6875 
L 18.109375 54.6875 
L 18.109375 46.390625 
Q 20.953125 51.265625 25.265625 53.625 
Q 29.59375 56 35.59375 56 
Q 45.5625 56 51.78125 48.09375 
Q 58.015625 40.1875 58.015625 27.296875 
Q 58.015625 14.40625 51.78125 6.484375 
Q 45.5625 -1.421875 35.59375 -1.421875 
Q 29.59375 -1.421875 25.265625 0.953125 
Q 20.953125 3.328125 18.109375 8.203125 
z
M 48.6875 27.296875 
Q 48.6875 37.203125 44.609375 42.84375 
Q 40.53125 48.484375 33.40625 48.484375 
Q 26.265625 48.484375 22.1875 42.84375 
Q 18.109375 37.203125 18.109375 27.296875 
Q 18.109375 17.390625 22.1875 11.75 
Q 26.265625 6.109375 33.40625 6.109375 
Q 40.53125 6.109375 44.609375 11.75 
Q 48.6875 17.390625 48.6875 27.296875 
z
" id="DejaVuSans-112"/>
     <path d="M 54.890625 33.015625 
L 54.890625 0 
L 45.90625 0 
L 45.90625 32.71875 
Q 45.90625 40.484375 42.875 44.328125 
Q 39.84375 48.1875 33.796875 48.1875 
Q 26.515625 48.1875 22.3125 43.546875 
Q 18.109375 38.921875 18.109375 30.90625 
L 18.109375 0 
L 9.078125 0 
L 9.078125 75.984375 
L 18.109375 75.984375 
L 18.109375 46.1875 
Q 21.34375 51.125 25.703125 53.5625 
Q 30.078125 56 35.796875 56 
Q 45.21875 56 50.046875 50.171875 
Q 54.890625 44.34375 54.890625 33.015625 
z
" id="DejaVuSans-104"/>
    </defs>
    <g transform="translate(205.106087 281.980248)scale(0.1 -0.1)">
     <use xlink:href="#DejaVuSans-72"/>
     <use x="75.195312" xlink:href="#DejaVuSans-121"/>
     <use x="134.375" xlink:href="#DejaVuSans-100"/>
     <use x="197.851562" xlink:href="#DejaVuSans-114"/>
     <use x="238.933594" xlink:href="#DejaVuSans-111"/>
     <use x="300.115234" xlink:href="#DejaVuSans-112"/>
     <use x="363.591797" xlink:href="#DejaVuSans-104"/>
     <use x="426.970703" xlink:href="#DejaVuSans-111"/>
     <use x="488.152344" xlink:href="#DejaVuSans-98"/>
     <use x="551.628906" xlink:href="#DejaVuSans-105"/>
     <use x="579.412109" xlink:href="#DejaVuSans-99"/>
    </g>
   </g>
   <g id="text_31">
    <g id="patch_125">
     <path d="M 340.848696 288.059936 
L 374.009633 288.059936 
L 374.009633 270.381811 
L 340.848696 270.381811 
z
" style="fill:none;opacity:0;"/>
    </g>
    <!-- Polar -->
    <defs>
     <path d="M 9.421875 75.984375 
L 18.40625 75.984375 
L 18.40625 0 
L 9.421875 0 
z
" id="DejaVuSans-108"/>
    </defs>
    <g transform="translate(344.848696 281.980248)scale(0.1 -0.1)">
     <use xlink:href="#DejaVuSans-80"/>
     <use x="60.255859" xlink:href="#DejaVuSans-111"/>
     <use x="121.4375" xlink:href="#DejaVuSans-108"/>
     <use x="149.220703" xlink:href="#DejaVuSans-97"/>
     <use x="210.5" xlink:href="#DejaVuSans-114"/>
    </g>
   </g>
   <g id="text_32">
    <!-- Number of contacts  by residue -->
    <g transform="translate(141.5475 35.472)scale(0.12 -0.12)">
     <use xlink:href="#DejaVuSans-78"/>
     <use x="74.804688" xlink:href="#DejaVuSans-117"/>
     <use x="138.183594" xlink:href="#DejaVuSans-109"/>
     <use x="235.595703" xlink:href="#DejaVuSans-98"/>
     <use x="299.072266" xlink:href="#DejaVuSans-101"/>
     <use x="360.595703" xlink:href="#DejaVuSans-114"/>
     <use x="401.708984" xlink:href="#DejaVuSans-32"/>
     <use x="433.496094" xlink:href="#DejaVuSans-111"/>
     <use x="494.677734" xlink:href="#DejaVuSans-102"/>
     <use x="529.882812" xlink:href="#DejaVuSans-32"/>
     <use x="561.669922" xlink:href="#DejaVuSans-99"/>
     <use x="616.650391" xlink:href="#DejaVuSans-111"/>
     <use x="677.832031" xlink:href="#DejaVuSans-110"/>
     <use x="741.210938" xlink:href="#DejaVuSans-116"/>
     <use x="780.419922" xlink:href="#DejaVuSans-97"/>
     <use x="841.699219" xlink:href="#DejaVuSans-99"/>
     <use x="896.679688" xlink:href="#DejaVuSans-116"/>
     <use x="935.888672" xlink:href="#DejaVuSans-115"/>
     <use x="987.988281" xlink:href="#DejaVuSans-32"/>
     <use x="1019.775391" xlink:href="#DejaVuSans-32"/>
     <use x="1051.5625" xlink:href="#DejaVuSans-98"/>
     <use x="1115.039062" xlink:href="#DejaVuSans-121"/>
     <use x="1174.21875" xlink:href="#DejaVuSans-32"/>
     <use x="1206.005859" xlink:href="#DejaVuSans-114"/>
     <use x="1247.087891" xlink:href="#DejaVuSans-101"/>
     <use x="1308.611328" xlink:href="#DejaVuSans-115"/>
     <use x="1360.710938" xlink:href="#DejaVuSans-105"/>
     <use x="1388.494141" xlink:href="#DejaVuSans-100"/>
     <use x="1451.970703" xlink:href="#DejaVuSans-117"/>
     <use x="1515.349609" xlink:href="#DejaVuSans-101"/>
    </g>
   </g>
   <g id="legend_1">
    <g id="patch_126">
     <path d="M 347.01375 122.862625 
L 407.72 122.862625 
Q 409.72 122.862625 409.72 120.862625 
L 409.72 48.472 
Q 409.72 46.472 407.72 46.472 
L 347.01375 46.472 
Q 345.01375 46.472 345.01375 48.472 
L 345.01375 120.862625 
Q 345.01375 122.862625 347.01375 122.862625 
z
" style="fill:#ffffff;opacity:0.8;stroke:#cccccc;stroke-linejoin:miter;"/>
    </g>
    <g id="patch_127">
     <path d="M 349.01375 58.070437 
L 369.01375 58.070437 
L 369.01375 51.070437 
L 349.01375 51.070437 
z
" style="fill:#a6cee3;"/>
    </g>
    <g id="text_33">
     <!-- DPSM -->
     <g transform="translate(377.01375 58.070437)scale(0.1 -0.1)">
      <use xlink:href="#DejaVuSans-68"/>
      <use x="77.001953" xlink:href="#DejaVuSans-80"/>
      <use x="137.304688" xlink:href="#DejaVuSans-83"/>
      <use x="200.78125" xlink:href="#DejaVuSans-77"/>
     </g>
    </g>
    <g id="patch_128">
     <path d="M 349.01375 72.748562 
L 369.01375 72.748562 
L 369.01375 65.748562 
L 349.01375 65.748562 
z
" style="fill:#33a02c;"/>
    </g>
    <g id="text_34">
     <!-- DOPC -->
     <defs>
      <path d="M 39.40625 66.21875 
Q 28.65625 66.21875 22.328125 58.203125 
Q 16.015625 50.203125 16.015625 36.375 
Q 16.015625 22.609375 22.328125 14.59375 
Q 28.65625 6.59375 39.40625 6.59375 
Q 50.140625 6.59375 56.421875 14.59375 
Q 62.703125 22.609375 62.703125 36.375 
Q 62.703125 50.203125 56.421875 58.203125 
Q 50.140625 66.21875 39.40625 66.21875 
z
M 39.40625 74.21875 
Q 54.734375 74.21875 63.90625 63.9375 
Q 73.09375 53.65625 73.09375 36.375 
Q 73.09375 19.140625 63.90625 8.859375 
Q 54.734375 -1.421875 39.40625 -1.421875 
Q 24.03125 -1.421875 14.8125 8.828125 
Q 5.609375 19.09375 5.609375 36.375 
Q 5.609375 53.65625 14.8125 63.9375 
Q 24.03125 74.21875 39.40625 74.21875 
z
" id="DejaVuSans-79"/>
     </defs>
     <g transform="translate(377.01375 72.748562)scale(0.1 -0.1)">
      <use xlink:href="#DejaVuSans-68"/>
      <use x="77.001953" xlink:href="#DejaVuSans-79"/>
      <use x="155.712891" xlink:href="#DejaVuSans-80"/>
      <use x="216.015625" xlink:href="#DejaVuSans-67"/>
     </g>
    </g>
    <g id="patch_129">
     <path d="M 349.01375 87.426687 
L 369.01375 87.426687 
L 369.01375 80.426687 
L 349.01375 80.426687 
z
" style="fill:#fdbf6f;"/>
    </g>
    <g id="text_35">
     <!-- DOPE -->
     <g transform="translate(377.01375 87.426687)scale(0.1 -0.1)">
      <use xlink:href="#DejaVuSans-68"/>
      <use x="77.001953" xlink:href="#DejaVuSans-79"/>
      <use x="155.712891" xlink:href="#DejaVuSans-80"/>
      <use x="216.015625" xlink:href="#DejaVuSans-69"/>
     </g>
    </g>
    <g id="patch_130">
     <path d="M 349.01375 102.104812 
L 369.01375 102.104812 
L 369.01375 95.104812 
L 349.01375 95.104812 
z
" style="fill:#6a3d9a;"/>
    </g>
    <g id="text_36">
     <!-- DOPS -->
     <g transform="translate(377.01375 102.104812)scale(0.1 -0.1)">
      <use xlink:href="#DejaVuSans-68"/>
      <use x="77.001953" xlink:href="#DejaVuSans-79"/>
      <use x="155.712891" xlink:href="#DejaVuSans-80"/>
      <use x="216.015625" xlink:href="#DejaVuSans-83"/>
     </g>
    </g>
    <g id="patch_131">
     <path d="M 349.01375 116.782937 
L 369.01375 116.782937 
L 369.01375 109.782937 
L 349.01375 109.782937 
z
" style="fill:#b15928;"/>
    </g>
    <g id="text_37">
     <!-- CHOL -->
     <g transform="translate(377.01375 116.782937)scale(0.1 -0.1)">
      <use xlink:href="#DejaVuSans-67"/>
      <use x="69.824219" xlink:href="#DejaVuSans-72"/>
      <use x="145.019531" xlink:href="#DejaVuSans-79"/>
      <use x="223.730469" xlink:href="#DejaVuSans-76"/>
     </g>
    </g>
   </g>
  </g>
 </g>
 <defs>
  <clipPath id="pce99e7bc2a">
   <rect height="217.728" width="357.12" x="57.6" y="41.472"/>
  </clipPath>
 </defs>
</svg>
